<svg width="83" height="68" viewBox="0 0 83 68" fill="none" xmlns="http://www.w3.org/2000/svg">
<g clip-path="url(#clip0_12_347)">
<path d="M80.3983 59.2794L69.77 51.3141L76.4201 47.0469C78.9784 45.4059 77.6049 41.3252 74.2829 40.696L61.9281 38.3561L46.6174 35.4565C43.8004 34.9227 41.8677 37.4182 43.139 39.949L50.046 53.7013L55.6196 64.7982C57.1181 67.7828 61.4825 68.0012 62.4113 65.1395L64.8263 57.6985L75.4546 65.6639C77.2467 67.0075 79.8059 66.667 81.1716 64.9039C82.5364 63.1409 82.1903 60.6221 80.3983 59.2794Z" fill="#6D071A"/>
<path d="M18.243 20.1126L35.2435 32.8548C36.0832 33.4832 37.2934 33.3225 37.9329 32.4972C38.5725 31.6711 38.4091 30.4805 37.5695 29.8504L20.5689 17.109C19.7292 16.4798 18.5191 16.6414 17.8795 17.4666C17.2399 18.2927 17.4033 19.4833 18.243 20.1126Z" fill="#6D071A"/>
<path d="M43.7146 29.2788C44.7605 29.1395 45.5005 28.1836 45.359 27.1546L42.4957 6.31813C42.3542 5.28829 41.3826 4.56019 40.3367 4.69945C39.2908 4.83871 38.5507 5.79461 38.6923 6.82359L41.5556 27.661C41.6971 28.6891 42.6687 29.4172 43.7146 29.2788Z" fill="#6D071A"/>
<path d="M50.1568 30.8708C50.9973 31.5001 52.2075 31.3393 52.8471 30.5132L65.7978 13.7866C66.4374 12.9605 66.274 11.7699 65.4343 11.1415C64.5946 10.5123 63.3845 10.673 62.7449 11.4991L49.7933 28.2249C49.1537 29.051 49.318 30.2416 50.1568 30.8708Z" fill="#6D071A"/>
<path d="M39.5861 44.5236C38.7464 43.8943 37.5362 44.0551 36.8966 44.8812L23.9451 61.6078C23.3055 62.4339 23.4689 63.6245 24.3085 64.2529C25.1482 64.8821 26.3583 64.7214 26.9979 63.8953L39.9495 47.1695C40.5891 46.3434 40.4249 45.1528 39.5861 44.5236Z" fill="#6D071A"/>
<mask id="mask0_12_347" style="mask-type:luminance" maskUnits="userSpaceOnUse" x="11" y="37" width="26" height="8">
<path d="M11.1875 37.1912H36.4598V44.0132H11.1875V37.1912Z" fill="white"/>
</mask>
<g mask="url(#mask0_12_347)">
<path d="M36.3148 38.8358C36.1733 37.8068 35.2017 37.0787 34.1558 37.218L12.977 40.035C11.9302 40.1743 11.1901 41.1302 11.3317 42.1591C11.4732 43.1881 12.4448 43.9162 13.4907 43.777L34.6696 40.9591C35.7163 40.8207 36.4555 39.8648 36.3148 38.8358Z" fill="#6D071A"/>
</g>
</g>
<defs>
<clipPath id="clip0_12_347">
<rect width="82.5379" height="68" fill="white"/>
</clipPath>
</defs>
</svg>
