<svg width="99" height="78" viewBox="0 0 99 78" fill="none" xmlns="http://www.w3.org/2000/svg">
<g clip-path="url(#clip0_12_152)">
<path d="M41.4229 7.05249H58.5644V11.3757H41.4229V7.05249Z" fill="#6D071A"/>
<path d="M79.9644 46.3844H20.023V26.1108H15.6197V56.9054C15.6197 59.2989 17.5847 61.2286 20.023 61.2286H79.9644C82.4028 61.2286 84.3686 59.2989 84.3686 56.9054V26.1108H79.9644V46.3844ZM49.9941 59.5672C47.974 59.5672 46.3177 57.96 46.3177 55.9592C46.3177 53.9762 47.974 52.369 49.9941 52.369C52.0134 52.369 53.6697 53.9762 53.6697 55.9592C53.6697 57.96 52.0134 59.5672 49.9941 59.5672Z" fill="#6D071A"/>
<path d="M41.6774 63.0149L35.1815 67.8383V70.1065H64.8061V67.8383L58.3102 63.0149H41.6774Z" fill="#6D071A"/>
<path d="M42.7698 35.9708C41.7325 36.5065 40.7858 37.1675 39.8943 37.9351C37.856 35.738 36.5463 32.8985 36.3463 29.7543C34.6728 28.5431 34.3624 28.3189 34.5443 28.45C34.5262 28.5931 34.5262 28.7361 34.5262 28.8969C34.5262 37.2564 41.4773 44.0619 49.9942 44.0619C58.5102 44.0619 65.4613 37.2564 65.4613 28.8969C65.4613 28.7361 65.4613 28.5753 65.4432 28.4323C65.2587 28.5677 62.6091 30.5118 63.642 29.7543C63.4412 32.8799 62.1496 35.738 60.1113 37.9174C59.2198 37.1675 58.255 36.4887 57.2359 35.953C57.7454 34.0952 58.0549 31.987 58.1282 29.7543H60.1475C59.4569 29.3793 58.9465 28.7717 58.7102 28.0218H58.1282C58.0549 25.7713 57.7454 23.6631 57.2359 21.8053C57.6911 21.5734 58.1282 21.3051 58.5645 21.0199V18.8583C57.9825 19.3221 57.3454 19.7512 56.6901 20.1084C56.1081 18.5722 55.3804 17.2325 54.5251 16.1965C55.9805 16.6967 57.3635 17.4466 58.5645 18.4292V16.2321C56.0538 14.5893 53.0878 13.6956 49.9942 13.6956C46.8825 13.6956 43.9337 14.5893 41.423 16.2499V18.4292C42.6421 17.4466 44.007 16.6967 45.4805 16.1965C44.6252 17.2325 43.8975 18.5722 43.3155 20.1084C42.6421 19.7512 42.005 19.3221 41.423 18.8405V21.0013C41.8593 21.3051 42.2964 21.5734 42.7698 21.8053C42.2421 23.6631 41.9325 25.7713 41.8782 28.0218H41.2773C41.041 28.7717 40.5315 29.3793 39.84 29.7543H41.8782C41.9325 31.987 42.2421 34.0952 42.7698 35.9708ZM58.8378 39.1327C57.5816 40.1864 56.1262 41.0083 54.5251 41.5618C55.3804 40.5258 56.1081 39.1861 56.6901 37.6499C57.4549 38.0604 58.1644 38.5606 58.8378 39.1327ZM50.8857 15.5897C52.5774 16.1077 54.0698 18.0721 55.089 20.8769C53.7603 21.3948 52.3411 21.6987 50.8857 21.7875V15.5897ZM50.8857 23.52C52.523 23.4312 54.106 23.1096 55.5985 22.5205C56.0357 24.181 56.3081 26.0566 56.3624 28.0218H50.8857V23.52ZM50.8857 29.7543H56.3624C56.3081 31.7017 56.0357 33.5773 55.5985 35.22C54.1069 34.6487 52.523 34.3271 50.8857 34.2383V29.7543ZM50.8857 35.9708C52.3411 36.0596 53.7603 36.3635 55.089 36.8814C54.0879 39.6862 52.5774 41.6684 50.8857 42.1864V35.9708ZM49.1199 42.1872C47.4283 41.6684 45.9177 39.6862 44.9166 36.8814C46.2453 36.3635 47.6645 36.0596 49.1199 35.9708V42.1872ZM49.1199 15.5897V21.7875C47.6645 21.6987 46.2453 21.3948 44.9166 20.8769C45.9177 18.0721 47.4283 16.1077 49.1199 15.5897ZM44.389 22.5383C45.8815 23.1096 47.4826 23.4312 49.1199 23.52V28.0218H43.6251C43.6975 26.0566 43.9527 24.1988 44.389 22.5383ZM49.1199 29.7543V34.2383C47.4826 34.3271 45.8996 34.6665 44.389 35.2387C43.9527 33.5773 43.6975 31.7017 43.6251 29.7543H49.1199ZM43.3155 37.6499C43.8975 39.2038 44.6252 40.5258 45.4633 41.5618C43.8794 41.0074 42.424 40.1864 41.1505 39.1497C41.8231 38.5784 42.5508 38.0782 43.3155 37.6499Z" fill="#6D071A"/>
<path d="M81.9294 16.6308H84.5031L85.4722 12.5454H81.9294V16.6308Z" fill="#6D071A"/>
<path d="M91.1429 -0.0852051H62.9014C61.5072 -0.0852051 60.3768 1.02352 60.3768 2.39207V27.1285C60.3768 28.0848 61.433 28.6807 62.2745 28.1991L69.0342 24.3304H91.1429C92.5371 24.3304 93.6666 23.2208 93.6666 21.8523V2.39207C93.6666 1.02352 92.5371 -0.0852051 91.1429 -0.0852051ZM74.5049 21.055C73.4677 21.055 72.6124 20.2154 72.6124 19.1973C72.6124 18.6793 72.8314 18.2147 73.1771 17.8753H75.8517C76.1975 18.2147 76.4165 18.6793 76.4165 19.1973C76.4156 20.2154 75.5611 21.055 74.5049 21.055ZM82.6399 21.055C81.6026 21.055 80.7473 20.2154 80.7473 19.1973C80.7473 18.6793 80.9655 18.2147 81.3112 17.8753H83.9858C84.3315 18.2147 84.5505 18.6793 84.5505 19.1973C84.5505 20.2154 83.6952 21.055 82.6399 21.055ZM88.1511 6.73726L85.6205 17.392C85.5541 17.673 85.298 17.8719 85.004 17.8719H72.058C71.9856 17.8719 71.9149 17.86 71.8485 17.8372C71.8123 17.8245 71.7804 17.8016 71.7467 17.7822C71.72 17.7669 71.6907 17.7568 71.6666 17.739C71.6338 17.7136 71.6105 17.6798 71.5838 17.6493C71.5648 17.6281 71.5415 17.6112 71.526 17.5867C71.4984 17.5452 71.4829 17.497 71.4657 17.4487C71.4588 17.4292 71.4467 17.4132 71.4415 17.392L68.4643 4.91336C68.3979 4.62983 68.1444 4.43263 67.8487 4.43263H66.5097C66.1605 4.43263 65.8777 4.15503 65.8777 3.81226C65.8777 3.46864 66.1605 3.19103 66.5097 3.19103H67.8487C68.7359 3.19103 69.4955 3.78263 69.6973 4.63153L70.018 5.97554H87.5346C87.7269 5.97554 87.9097 6.06187 88.0295 6.20998C88.1494 6.35809 88.1942 6.55275 88.1511 6.73726Z" fill="#6D071A"/>
<path d="M81.9294 11.3029H85.7671L86.7371 7.21753H81.9294V11.3029Z" fill="#6D071A"/>
<path d="M71.2949 11.3029H75.1335V7.21753H70.3241L71.2949 11.3029Z" fill="#6D071A"/>
<path d="M76.4001 7.21875H80.6654V11.3058H76.4001V7.21875Z" fill="#6D071A"/>
<path d="M72.4658 16.2364L72.5598 16.6308H75.1335V12.5454H71.5898L72.4658 16.2364Z" fill="#6D071A"/>
<path d="M76.4001 12.5444H80.6654V16.6298H76.4001V12.5444Z" fill="#6D071A"/>
<path d="M37.7102 28.2008C38.5474 28.6832 39.6028 28.0933 39.6028 27.1293V2.3895C39.6028 1.03195 38.475 -0.0759277 37.092 -0.0759277H8.84959C7.44851 -0.0759277 6.32074 1.03195 6.32074 2.3895V21.8599C6.32074 23.2174 7.44851 24.3245 8.84959 24.3245H30.9591L37.7102 28.2008ZM8.41331 19.1448V5.10461C8.41331 3.5507 9.7049 2.29979 11.2698 2.29979H34.6537C36.2186 2.29979 37.5102 3.5507 37.5102 5.10461V19.1448C37.5102 20.6809 36.2186 21.9487 34.6537 21.9487H11.2698C9.7049 21.9487 8.41331 20.6809 8.41331 19.1448Z" fill="#6D071A"/>
<path d="M35.6912 5.10459C35.6912 4.53245 35.2178 4.08643 34.6539 4.08643H11.27C10.7061 4.08643 10.2328 4.53245 10.2328 5.10459V6.12275H35.6912V5.10459Z" fill="#6D071A"/>
<path d="M10.2387 7.90967H35.691V10.161H10.2387V7.90967Z" fill="#6D071A"/>
<path d="M35.6912 19.1444V11.9453H10.2328V19.1444C10.2328 19.6979 10.7061 20.1626 11.27 20.1626H34.6539C35.2178 20.1626 35.6912 19.6979 35.6912 19.1444ZM19.3834 16.7408H15.1551V15.208H19.3834V16.7408ZM25.0783 16.7408H20.85V15.208H25.0783V16.7408ZM30.7731 16.7408H26.5449V15.208H30.7731V16.7408Z" fill="#6D071A"/>
<mask id="mask0_12_152" style="mask-type:luminance" maskUnits="userSpaceOnUse" x="16" y="77" width="68" height="64">
<path d="M16.5173 77.9387H83.397V140.339H16.5173V77.9387Z" fill="white"/>
</mask>
<g mask="url(#mask0_12_152)">
<path d="M83.4323 101.789H57.8842L49.9899 77.9385L42.0964 101.789H16.5483L37.2163 116.529L29.3219 140.379L49.9899 125.639L70.6578 140.379L62.7626 116.529L83.4323 101.789ZM49.9899 120.1L38.0052 128.647L42.5827 114.817L30.5971 106.269H45.4116L49.989 92.4391L54.5665 106.269H69.38L57.3954 114.817L61.9728 128.647L49.9899 120.1Z" fill="#6D071A"/>
</g>
</g>
<defs>
<clipPath id="clip0_12_152">
<rect width="98.8295" height="78" fill="white"/>
</clipPath>
</defs>
</svg>
