<svg width="24" height="20" viewBox="0 0 24 20" fill="none" xmlns="http://www.w3.org/2000/svg">
<path d="M12 1.20898C9.81276 1.21106 7.71584 1.91217 6.16923 3.1585C4.62261 4.40484 3.75259 6.09463 3.75001 7.85721C3.74739 9.2976 4.33124 10.6989 5.41201 11.8462C5.41201 11.8462 5.63701 12.0849 5.67376 12.1193L12 18.1317L18.3293 12.1163C18.3623 12.0843 18.588 11.8462 18.588 11.8462L18.5888 11.8443C19.669 10.6976 20.2526 9.29694 20.25 7.85721C20.2474 6.09463 19.3774 4.40484 17.8308 3.1585C16.2842 1.91217 14.1873 1.21106 12 1.20898ZM12 10.2748C11.4067 10.2748 10.8266 10.133 10.3333 9.86732C9.83995 9.60168 9.45543 9.22411 9.22837 8.78236C9.00131 8.34062 8.9419 7.85453 9.05765 7.38557C9.17341 6.91662 9.45913 6.48585 9.87869 6.14776C10.2982 5.80966 10.8328 5.57941 11.4147 5.48613C11.9967 5.39285 12.5999 5.44072 13.1481 5.6237C13.6962 5.80668 14.1648 6.11654 14.4944 6.5141C14.8241 6.91166 15 7.37907 15 7.85721C14.999 8.49814 14.6826 9.11258 14.1202 9.56579C13.5578 10.019 12.7954 10.274 12 10.2748Z" fill="white"/>
</svg>
