<svg width="24" height="20" viewBox="0 0 24 20" fill="none" xmlns="http://www.w3.org/2000/svg">
<path d="M20 9.29526H22C22 5.16127 18.127 2.04346 12.99 2.04346V3.65515C17.052 3.65515 20 6.02675 20 9.29526Z" fill="white"/>
<path d="M13 6.87844C15.103 6.87844 16 7.60128 16 9.29597H18C18 6.69712 16.225 5.26674 13 5.26674V6.87844ZM16.422 11.2647C16.2299 11.1239 15.9774 11.0489 15.7178 11.0553C15.4583 11.0618 15.212 11.1493 15.031 11.2993L12.638 13.2825C12.062 13.1938 10.904 12.9029 9.71201 11.9448C8.52001 10.9834 8.15901 10.0478 8.05201 9.58688L10.511 7.65769C10.6974 7.51193 10.8061 7.31345 10.8142 7.10424C10.8222 6.89503 10.7289 6.69151 10.554 6.53676L6.85901 3.2626C6.68405 3.10736 6.44089 3.0132 6.18116 3.00011C5.92143 2.98702 5.66561 3.05603 5.46801 3.1925L3.29801 4.69218C3.12512 4.832 3.02193 5.0181 3.00801 5.21517C2.99301 5.41663 2.70701 10.1889 7.29901 13.8909C11.305 17.1183 16.323 17.3544 17.705 17.3544C17.907 17.3544 18.031 17.3496 18.064 17.348C18.3085 17.337 18.5393 17.2534 18.712 17.1135L20.572 15.364C20.7415 15.2049 20.8273 14.9988 20.8112 14.7895C20.7952 14.5802 20.6785 14.3842 20.486 14.2431L16.422 11.2647Z" fill="white"/>
</svg>
