<svg width="88" height="99" viewBox="0 0 88 99" fill="none" xmlns="http://www.w3.org/2000/svg">
<g clip-path="url(#clip0_12_22)">
<path d="M24.1076 68.5022H50.8925C50.9811 68.5022 51.0679 68.5114 51.1538 68.529C51.2406 68.5466 51.3238 68.5725 51.4052 68.6067C51.4866 68.6409 51.5635 68.6835 51.6367 68.7334C51.7099 68.7834 51.7778 68.8398 51.8401 68.9036C51.9025 68.9675 51.9577 69.0368 52.0065 69.1108C52.0553 69.1858 52.0969 69.2653 52.1304 69.3476C52.1639 69.4309 52.1892 69.5169 52.2064 69.6048C52.2235 69.6936 52.2326 69.7824 52.2326 69.8721V75.3527C52.2326 75.4424 52.2235 75.5312 52.2064 75.62C52.1892 75.7079 52.1639 75.7939 52.1304 75.8771C52.0969 75.9604 52.0553 76.039 52.0065 76.1139C51.9577 76.1889 51.9025 76.2573 51.8401 76.3211C51.7778 76.385 51.7099 76.4414 51.6367 76.4913C51.5635 76.5413 51.4866 76.5838 51.4052 76.6181C51.3238 76.6523 51.2406 76.6791 51.1538 76.6967C51.0679 76.7143 50.9811 76.7226 50.8925 76.7226H24.1076C24.019 76.7226 23.9322 76.7143 23.8463 76.6967C23.7595 76.6791 23.6763 76.6523 23.5949 76.6181C23.5135 76.5838 23.4366 76.5413 23.3634 76.4913C23.2902 76.4414 23.2223 76.385 23.16 76.3211C23.0976 76.2573 23.0424 76.1889 22.9936 76.1139C22.9447 76.039 22.9032 75.9604 22.8697 75.8771C22.8362 75.7939 22.8109 75.7079 22.7937 75.62C22.7766 75.5312 22.7675 75.4424 22.7675 75.3527V69.8721C22.7675 69.7824 22.7766 69.6936 22.7937 69.6048C22.8109 69.5169 22.8362 69.4309 22.8697 69.3476C22.9032 69.2653 22.9447 69.1858 22.9936 69.1108C23.0424 69.0368 23.0976 68.9675 23.16 68.9036C23.2223 68.8398 23.2902 68.7834 23.3634 68.7334C23.4366 68.6835 23.5135 68.6409 23.5949 68.6067C23.6763 68.5725 23.7595 68.5466 23.8463 68.529C23.9322 68.5114 24.019 68.5022 24.1076 68.5022Z" fill="#6D071A"/>
<path d="M44.1967 21.9203V13.7H41.5174V17.8106C41.5174 17.9003 41.5093 17.9891 41.4921 18.0779C41.4749 18.1658 41.4496 18.2518 41.4162 18.3351C41.3818 18.4183 41.3411 18.4969 41.2923 18.5719C41.2435 18.6468 41.1874 18.7152 41.1259 18.7791C41.0635 18.8429 40.9957 18.8993 40.9225 18.9493C40.8492 18.9992 40.7724 19.0418 40.691 19.076C40.6096 19.1102 40.5264 19.137 40.4396 19.1546C40.3537 19.1722 40.2669 19.1805 40.1783 19.1805C40.0906 19.1805 40.0038 19.1722 39.917 19.1546C39.8311 19.137 39.747 19.1102 39.6656 19.076C39.5851 19.0418 39.5073 18.9992 39.4341 18.9493C39.3618 18.8993 39.294 18.8429 39.2316 18.7791C39.1692 18.7152 39.114 18.6468 39.0652 18.5719C39.0164 18.4969 38.9748 18.4183 38.9413 18.3351C38.9078 18.2518 38.8825 18.1658 38.8653 18.0779C38.8482 17.9891 38.8391 17.9003 38.8391 17.8106V13.7H36.1608V16.4407C36.1608 16.5304 36.1518 16.6192 36.1346 16.708C36.1174 16.7959 36.0921 16.8819 36.0586 16.9652C36.0252 17.0475 35.9836 17.127 35.9348 17.202C35.8859 17.276 35.8308 17.3453 35.7684 17.4092C35.706 17.473 35.6382 17.5294 35.5658 17.5794C35.4926 17.6293 35.4148 17.6719 35.3344 17.7061C35.253 17.7403 35.1689 17.7662 35.083 17.7838C34.9962 17.8014 34.9094 17.8106 34.8217 17.8106C34.733 17.8106 34.6462 17.8014 34.5603 17.7838C34.4735 17.7662 34.3903 17.7403 34.309 17.7061C34.2276 17.6719 34.1507 17.6293 34.0775 17.5794C34.0042 17.5294 33.9364 17.473 33.874 17.4092C33.8125 17.3453 33.7565 17.276 33.7077 17.202C33.6588 17.127 33.6181 17.0475 33.5838 16.9652C33.5503 16.8819 33.525 16.7959 33.5078 16.708C33.4906 16.6192 33.4825 16.5304 33.4825 16.4407V13.7H30.8033V21.9203H44.1967Z" fill="#6D071A"/>
<path d="M30.8033 24.6614V26.0313C30.8033 26.121 30.8123 26.2098 30.8295 26.2986C30.8467 26.3865 30.872 26.4725 30.9055 26.5548C30.9398 26.6381 30.9805 26.7176 31.0293 26.7916C31.0782 26.8666 31.1342 26.9359 31.1957 26.9998C31.2581 27.0636 31.3259 27.12 31.3992 27.1699C31.4724 27.2199 31.5493 27.2624 31.6306 27.2967C31.712 27.3309 31.7952 27.3568 31.882 27.3744C31.9679 27.3919 32.0547 27.4012 32.1424 27.4012H42.8575C42.9452 27.4012 43.032 27.3919 43.1179 27.3744C43.2047 27.3568 43.2879 27.3309 43.3693 27.2967C43.4507 27.2624 43.5275 27.2199 43.6008 27.1699C43.674 27.12 43.7418 27.0636 43.8042 26.9998C43.8657 26.9359 43.9218 26.8666 43.9706 26.7916C44.0194 26.7176 44.0601 26.6381 44.0945 26.5548C44.1279 26.4725 44.1533 26.3865 44.1704 26.2986C44.1876 26.2098 44.1967 26.121 44.1967 26.0313V24.6614H30.8033Z" fill="#6D071A"/>
<path d="M36.1609 36.9913C36.1609 37.0811 36.169 37.1699 36.1862 37.2587C36.2034 37.3465 36.2287 37.4326 36.2631 37.5158C36.2965 37.5991 36.3372 37.6777 36.386 37.7526C36.4358 37.8275 36.4909 37.896 36.5533 37.9598C36.6148 38.0236 36.6826 38.0801 36.7559 38.13C36.8291 38.18 36.906 38.2225 36.9873 38.2567C37.0687 38.291 37.1528 38.3178 37.2387 38.3354C37.3246 38.3529 37.4123 38.3613 37.5 38.3613C37.5878 38.3613 37.6755 38.3529 37.7614 38.3354C37.8473 38.3178 37.9314 38.291 38.0127 38.2567C38.0941 38.2225 38.171 38.18 38.2442 38.13C38.3175 38.0801 38.3853 38.0236 38.4468 37.9598C38.5092 37.896 38.5643 37.8275 38.614 37.7526C38.6629 37.6777 38.7036 37.5991 38.737 37.5158C38.7714 37.4326 38.7967 37.3465 38.8139 37.2587C38.8311 37.1699 38.8392 37.0811 38.8392 36.9913V30.1409H36.1609V36.9913Z" fill="#6D071A"/>
<path d="M70.9825 0H4.01747C3.88636 0 3.75524 0.00647494 3.62413 0.0203498C3.49302 0.0332996 3.36372 0.0536493 3.23441 0.0795492C3.10511 0.106374 2.97761 0.138749 2.85192 0.177598C2.72624 0.217373 2.60236 0.262697 2.48119 0.314496C2.35912 0.365371 2.24067 0.42272 2.12493 0.486545C2.00828 0.550369 1.89616 0.618818 1.78675 0.693742C1.67734 0.768666 1.57154 0.849141 1.47027 0.934239C1.36809 1.01934 1.27134 1.10999 1.1782 1.20526C1.08507 1.30054 0.996456 1.39951 0.913267 1.50403C0.830078 1.60763 0.751411 1.71586 0.678168 1.82778C0.604926 1.9397 0.538014 2.05533 0.475622 2.17373C0.413231 2.29212 0.357169 2.4133 0.307436 2.53817C0.2568 2.66212 0.212493 2.78884 0.173611 2.91742C0.135634 3.04599 0.103986 3.17641 0.0777634 3.30869C0.0524449 3.44096 0.0325521 3.57323 0.0198929 3.70736C0.00632958 3.84148 0 3.97561 0 4.10973V53.432C0 53.5661 0.00632958 53.7003 0.0198929 53.8344C0.0325521 53.9685 0.0524449 54.1008 0.0777634 54.2331C0.103986 54.3653 0.135634 54.4958 0.173611 54.6243C0.212493 54.7529 0.2568 54.8796 0.307436 55.0036C0.357169 55.1285 0.413231 55.2496 0.475622 55.368C0.538014 55.4864 0.604926 55.602 0.678168 55.714C0.751411 55.8259 0.830078 55.9341 0.913267 56.0377C0.996456 56.1422 1.08507 56.2412 1.1782 56.3365C1.27134 56.4318 1.36809 56.5224 1.47027 56.6075C1.57154 56.6926 1.67734 56.7731 1.78675 56.848C1.89616 56.922 2.00828 56.9914 2.12493 57.0552C2.24067 57.119 2.35912 57.1764 2.48119 57.2273C2.60236 57.2791 2.72624 57.3244 2.85192 57.3642C2.97761 57.403 3.10511 57.4354 3.23441 57.4622C3.36372 57.4881 3.49302 57.5085 3.62413 57.5214C3.75524 57.5353 3.88636 57.5418 4.01747 57.5418H70.9825C71.1136 57.5418 71.2448 57.5353 71.3759 57.5214C71.507 57.5085 71.6363 57.4881 71.7656 57.4622C71.8949 57.4354 72.0224 57.403 72.1481 57.3642C72.2738 57.3244 72.3976 57.2791 72.5188 57.2273C72.6409 57.1764 72.7593 57.119 72.8751 57.0552C72.9908 56.9914 73.1038 56.922 73.2132 56.848C73.3227 56.7731 73.4285 56.6926 73.5297 56.6075C73.6319 56.5224 73.7287 56.4318 73.8218 56.3365C73.9149 56.2412 74.0035 56.1422 74.0867 56.0377C74.1699 55.9341 74.2486 55.8259 74.3218 55.714C74.3942 55.602 74.462 55.4864 74.5244 55.368C74.5868 55.2496 74.6428 55.1285 74.6926 55.0036C74.7432 54.8796 74.7875 54.7529 74.8264 54.6243C74.8644 54.4958 74.896 54.3653 74.9222 54.2331C74.9476 54.1008 74.9674 53.9685 74.9801 53.8344C74.9937 53.7003 75 53.5661 75 53.432V4.10973C75 3.97561 74.9937 3.84148 74.9801 3.70736C74.9674 3.57323 74.9476 3.44096 74.9222 3.30869C74.896 3.17641 74.8644 3.04599 74.8264 2.91742C74.7875 2.78884 74.7432 2.66212 74.6926 2.53817C74.6428 2.4133 74.5868 2.29212 74.5244 2.17373C74.462 2.05533 74.3942 1.9397 74.3218 1.82778C74.2486 1.71586 74.1699 1.60763 74.0867 1.50403C74.0035 1.39951 73.9149 1.30054 73.8218 1.20526C73.7287 1.10999 73.6319 1.01934 73.5297 0.934239C73.4285 0.849141 73.3227 0.768666 73.2132 0.693742C73.1038 0.619743 72.9908 0.550369 72.8751 0.486545C72.7593 0.42272 72.6409 0.365371 72.5188 0.314496C72.3976 0.262697 72.2738 0.217373 72.1481 0.177598C72.0224 0.138749 71.8949 0.106374 71.7656 0.0795492C71.6363 0.0536493 71.507 0.0332996 71.3759 0.0203498C71.2448 0.00647494 71.1136 0 70.9825 0ZM40.1783 52.0612H34.8217C34.7331 52.0612 34.6463 52.0529 34.5604 52.0353C34.4736 52.0177 34.3904 51.9918 34.309 51.9576C34.2276 51.9224 34.1508 51.8808 34.0775 51.8309C34.0043 51.7809 33.9365 51.7236 33.8741 51.6607C33.8126 51.5968 33.7565 51.5275 33.7077 51.4525C33.6589 51.3776 33.6182 51.299 33.5838 51.2157C33.5503 51.1325 33.525 51.0474 33.5078 50.9586C33.4907 50.8707 33.4825 50.7819 33.4825 50.6913C33.4825 50.6016 33.4907 50.5128 33.5078 50.424C33.525 50.3361 33.5503 50.2501 33.5838 50.1668C33.6182 50.0845 33.6589 50.0049 33.7077 49.93C33.7565 49.856 33.8126 49.7866 33.8741 49.7228C33.9365 49.659 34.0043 49.6026 34.0775 49.5526C34.1508 49.5027 34.2276 49.4601 34.309 49.4259C34.3904 49.3917 34.4736 49.3658 34.5604 49.3482C34.6463 49.3306 34.7331 49.3214 34.8217 49.3214H40.1783C40.2669 49.3214 40.3537 49.3306 40.4396 49.3482C40.5264 49.3658 40.6096 49.3917 40.691 49.4259C40.7724 49.4601 40.8492 49.5027 40.9225 49.5526C40.9957 49.6026 41.0635 49.659 41.1259 49.7228C41.1874 49.7866 41.2435 49.856 41.2923 49.93C41.3411 50.0049 41.3818 50.0845 41.4162 50.1668C41.4497 50.2501 41.475 50.3361 41.4921 50.424C41.5093 50.5128 41.5175 50.6016 41.5175 50.6913C41.5175 50.7819 41.5093 50.8707 41.4921 50.9586C41.475 51.0474 41.4497 51.1325 41.4162 51.2157C41.3818 51.299 41.3411 51.3776 41.2923 51.4525C41.2435 51.5275 41.1874 51.5968 41.1259 51.6607C41.0635 51.7236 40.9957 51.7809 40.9225 51.8309C40.8492 51.8808 40.7724 51.9224 40.691 51.9576C40.6096 51.9918 40.5264 52.0177 40.4396 52.0353C40.3537 52.0529 40.2669 52.0612 40.1783 52.0612ZM69.6425 45.2116C69.6425 45.3014 69.6343 45.3902 69.6171 45.479C69.6 45.5668 69.5747 45.6529 69.5412 45.7361C69.5068 45.8184 69.4661 45.898 69.4173 45.9729C69.3685 46.0469 69.3124 46.1163 69.2509 46.1801C69.1885 46.2439 69.1207 46.3004 69.0475 46.3503C68.9742 46.4003 68.8974 46.4428 68.816 46.477C68.7346 46.5112 68.6514 46.5372 68.5646 46.5547C68.4787 46.5723 68.3919 46.5816 68.3033 46.5816H6.69669C6.60807 46.5816 6.52127 46.5723 6.43537 46.5547C6.34856 46.5372 6.26537 46.5112 6.18399 46.477C6.10261 46.4428 6.02575 46.4003 5.95251 46.3503C5.87927 46.3004 5.81145 46.2439 5.74906 46.1801C5.68757 46.1163 5.63151 46.0469 5.58268 45.9729C5.53385 45.898 5.49316 45.8184 5.4588 45.7361C5.42535 45.6529 5.40003 45.5668 5.38285 45.479C5.36567 45.3902 5.35753 45.3014 5.35753 45.2116V6.85047C5.35753 6.75982 5.36567 6.67102 5.38285 6.58315C5.40003 6.49435 5.42535 6.40925 5.4588 6.326C5.49316 6.24275 5.53385 6.16413 5.58268 6.08921C5.63151 6.01428 5.68757 5.94491 5.74906 5.88108C5.81145 5.81818 5.87927 5.76084 5.95251 5.71089C6.02575 5.66094 6.10261 5.61931 6.18399 5.58416C6.26537 5.54994 6.34856 5.52404 6.43537 5.50646C6.52127 5.48889 6.60807 5.48056 6.69669 5.48056H68.3033C68.3919 5.48056 68.4787 5.48889 68.5646 5.50646C68.6514 5.52404 68.7346 5.54994 68.816 5.58416C68.8974 5.61931 68.9742 5.66094 69.0475 5.71089C69.1207 5.76084 69.1885 5.81818 69.2509 5.88108C69.3124 5.94491 69.3685 6.01428 69.4173 6.08921C69.4661 6.16413 69.5068 6.24275 69.5412 6.326C69.5747 6.40925 69.6 6.49435 69.6171 6.58315C69.6343 6.67102 69.6425 6.75982 69.6425 6.85047V45.2116Z" fill="#6D071A"/>
<path d="M8.03583 43.8416H66.9641V8.22021H8.03583V43.8416ZM28.125 12.3299C28.125 12.2402 28.1331 12.1514 28.1503 12.0626C28.1675 11.9747 28.1937 11.8887 28.2272 11.8055C28.2606 11.7232 28.3022 11.6436 28.351 11.5687C28.3999 11.4947 28.455 11.4253 28.5174 11.3615C28.5798 11.2977 28.6467 11.2412 28.72 11.1913C28.7932 11.1413 28.8701 11.0988 28.9514 11.0646C29.0328 11.0303 29.1169 11.0044 29.2028 10.9869C29.2896 10.9693 29.3764 10.96 29.4641 10.96H45.5358C45.6235 10.96 45.7103 10.9693 45.7971 10.9869C45.8831 11.0044 45.9671 11.0303 46.0485 11.0646C46.1299 11.0988 46.2068 11.1413 46.28 11.1913C46.3532 11.2412 46.4202 11.2977 46.4826 11.3615C46.5449 11.4253 46.6001 11.4947 46.6489 11.5687C46.6978 11.6436 46.7394 11.7232 46.7728 11.8055C46.8063 11.8887 46.8325 11.9747 46.8497 12.0626C46.8668 12.1514 46.875 12.2402 46.875 12.3299V26.0309C46.875 26.165 46.8687 26.2991 46.8551 26.4333C46.8424 26.5674 46.8225 26.7006 46.7972 26.8319C46.771 26.9642 46.7394 27.0946 46.7014 27.2232C46.6625 27.3518 46.6182 27.4785 46.5676 27.6024C46.5178 27.7273 46.4618 27.8485 46.3994 27.9669C46.337 28.0862 46.2701 28.2009 46.1968 28.3128C46.1236 28.4248 46.0449 28.533 45.9617 28.6366C45.8785 28.7411 45.7899 28.8401 45.6968 28.9354C45.6036 29.0306 45.5069 29.1213 45.4047 29.2064C45.3034 29.2915 45.1977 29.372 45.0882 29.4469C44.9788 29.5218 44.8658 29.5903 44.7501 29.6541C44.6343 29.7179 44.5159 29.7752 44.3938 29.827C44.2726 29.8779 44.1488 29.9232 44.0231 29.963C43.8974 30.0019 43.7699 30.0342 43.6406 30.0611C43.5113 30.087 43.382 30.1073 43.2509 30.1203C43.1197 30.1341 42.9886 30.1406 42.8575 30.1406H41.5175V36.9911C41.5175 37.1252 41.5111 37.2603 41.4985 37.3935C41.4858 37.5276 41.4659 37.6608 41.4406 37.7931C41.4153 37.9244 41.3827 38.0548 41.3447 38.1843C41.3068 38.3129 41.2625 38.4396 41.2118 38.5636C41.1612 38.6884 41.1051 38.8096 41.0436 38.928C40.9813 39.0473 40.9134 39.162 40.8411 39.274C40.7679 39.3859 40.6892 39.4941 40.606 39.5986C40.5219 39.7022 40.4342 39.8021 40.3411 39.8974C40.2479 39.9927 40.1503 40.0824 40.049 40.1684C39.9468 40.2535 39.8419 40.334 39.7325 40.408C39.6231 40.4829 39.5101 40.5523 39.3943 40.6161C39.2777 40.679 39.1592 40.7364 39.0372 40.7882C38.916 40.84 38.7921 40.8853 38.6664 40.9242C38.5407 40.963 38.4133 40.9963 38.2839 41.0222C38.1546 41.0481 38.0244 41.0685 37.8942 41.0814C37.7631 41.0943 37.632 41.1008 37.5 41.1008C37.368 41.1008 37.2369 41.0943 37.1057 41.0814C36.9755 41.0685 36.8453 41.0481 36.716 41.0222C36.5867 40.9963 36.4592 40.963 36.3335 40.9242C36.2078 40.8853 36.084 40.84 35.9628 40.7882C35.8407 40.7364 35.7223 40.679 35.6056 40.6161C35.4899 40.5523 35.3769 40.4829 35.2675 40.408C35.158 40.334 35.0532 40.2535 34.951 40.1684C34.8497 40.0824 34.752 39.9927 34.6589 39.8974C34.5658 39.8021 34.4781 39.7022 34.394 39.5986C34.3108 39.4941 34.2321 39.3859 34.1589 39.274C34.0865 39.162 34.0187 39.0473 33.9563 38.928C33.8948 38.8096 33.8379 38.6884 33.7881 38.5636C33.7375 38.4396 33.6932 38.3129 33.6552 38.1843C33.6172 38.0548 33.5847 37.9244 33.5594 37.7931C33.5341 37.6608 33.5142 37.5276 33.5015 37.3935C33.4888 37.2603 33.4825 37.1252 33.4825 36.9911V30.1406H32.1425C32.0113 30.1406 31.8802 30.1341 31.7491 30.1203C31.618 30.1073 31.4887 30.087 31.3594 30.0611C31.2301 30.0342 31.1026 30.0019 30.9769 29.963C30.8512 29.9232 30.7273 29.8779 30.6062 29.827C30.4841 29.7752 30.3657 29.7179 30.2499 29.6541C30.1333 29.5903 30.0211 29.5218 29.9117 29.4469C29.8023 29.372 29.6965 29.2915 29.5953 29.2064C29.4931 29.1213 29.3963 29.0306 29.3032 28.9354C29.2101 28.8401 29.1214 28.7411 29.0383 28.6366C28.9551 28.533 28.8764 28.4248 28.8032 28.3128C28.7299 28.2009 28.663 28.0862 28.6006 27.9669C28.5382 27.8485 28.4822 27.7273 28.4324 27.6024C28.3818 27.4785 28.3375 27.3518 28.2986 27.2232C28.2606 27.0946 28.229 26.9642 28.2027 26.8319C28.1774 26.7006 28.1575 26.5674 28.1449 26.4333C28.1313 26.2991 28.125 26.165 28.125 26.0309V12.3299Z" fill="#6D071A"/>
<path d="M31.6298 60.2815L30.9607 65.7621H44.0394L43.3703 60.2815H31.6298Z" fill="#6D071A"/>
</g>
<defs>
<clipPath id="clip0_12_22">
<rect width="87.1875" height="99" fill="white"/>
</clipPath>
</defs>
</svg>
