<svg width="91" height="75" viewBox="0 0 91 75" fill="none" xmlns="http://www.w3.org/2000/svg">
<g clip-path="url(#clip0_12_87)">
<mask id="mask0_12_87" style="mask-type:luminance" maskUnits="userSpaceOnUse" x="0" y="4" width="66" height="65">
<path d="M0.468506 4.98242H65.3514V68.5362H0.468506V4.98242Z" fill="white"/>
</mask>
<g mask="url(#mask0_12_87)">
<path fill-rule="evenodd" clip-rule="evenodd" d="M65.1684 10.3293H62.4747V8.97473C62.4747 8.19693 61.8571 7.56286 61.0995 7.56286H4.58587C3.81363 7.56286 3.21066 8.19693 3.21066 8.97473V44.8708C3.21066 45.6486 3.82827 46.2817 4.58587 46.2817H35.5368V57.3446H29.5876L27.5674 65.642H35.5368V68.4075H20.7206C19.963 68.4075 19.3737 67.7876 19.3737 67.0248C19.3737 66.2902 19.9767 65.642 20.7343 65.642H24.2277C24.537 65.642 24.8169 65.3969 24.8874 65.1085L26.7814 57.3446H4.58587C2.34052 57.3446 0.516968 55.4725 0.516968 53.2105V8.93152C0.516968 6.64134 2.31307 4.79736 4.58587 4.79736H61.0995C63.3448 4.79736 65.1684 6.67046 65.1684 8.93152V10.3293ZM32.8431 54.5791C34.33 54.5791 35.5368 53.3401 35.5368 51.8136C35.5368 50.2862 34.33 49.0481 32.8431 49.0481C31.3554 49.0481 30.1485 50.2862 30.1485 51.8136C30.1485 53.3401 31.3554 54.5791 32.8431 54.5791Z" fill="#6D071A"/>
</g>
<path fill-rule="evenodd" clip-rule="evenodd" d="M75.944 24.1567H73.2503V18.6257H40.9242V62.8755H51.6999V71.173H42.2847C40.0403 71.173 38.2305 69.329 38.2305 67.0097V17.2571C38.2305 14.9528 40.0266 13.0947 42.2847 13.0947H71.8888C74.1342 13.0947 75.944 14.9378 75.944 17.2571V24.1567Z" fill="#6D071A"/>
<path fill-rule="evenodd" clip-rule="evenodd" d="M58.4478 26.9224H77.2771C79.5216 26.9224 81.3314 28.7663 81.3314 31.0856V69.7754C81.3314 72.0806 79.5353 73.9386 77.2771 73.9386H58.4478C56.2034 73.9386 54.3936 72.0947 54.3936 69.7754V31.0856C54.3936 28.7814 56.1897 26.9224 58.4478 26.9224ZM57.0872 62.8757H78.6377V32.4543H57.0872V62.8757ZM67.862 71.1731C69.3498 71.1731 70.5566 69.9341 70.5566 68.4076C70.5566 66.8802 69.3498 65.6421 67.862 65.6421C66.3752 65.6421 65.1683 66.8802 65.1683 68.4076C65.1683 69.9341 66.3752 71.1731 67.862 71.1731Z" fill="#6D071A"/>
</g>
<defs>
<clipPath id="clip0_12_87">
<rect width="91" height="74.3077" fill="white"/>
</clipPath>
</defs>
</svg>
