<svg width="76" height="77" viewBox="0 0 76 77" fill="none" xmlns="http://www.w3.org/2000/svg">
<g clip-path="url(#clip0_12_282)">
<path d="M62.2293 36.4193C62.5358 36.8781 62.4755 37.4893 62.0853 37.8794L61.7697 38.1942H63.9541V32.5051C62.7074 32.7153 61.5738 33.2603 60.6453 34.0423L62.2293 36.4193Z" fill="#6D071A"/>
<path d="M48.8777 60.1855H32.7364C33.2831 63.3219 32.7917 66.5871 31.2947 69.4447H50.3161C48.82 66.5871 48.3302 63.321 48.8777 60.1855Z" fill="#6D071A"/>
<mask id="mask0_12_282" style="mask-type:luminance" maskUnits="userSpaceOnUse" x="6" y="53" width="70" height="5">
<path d="M6.0835 53.1553H75.5282V57.8707H6.0835V53.1553Z" fill="white"/>
</mask>
<g mask="url(#mask0_12_282)">
<path d="M6.0835 56.134C6.0835 57.0918 6.86297 57.8705 7.81995 57.8705H73.7926C74.7495 57.8705 75.5282 57.0918 75.5282 56.134V53.2405H6.0835V56.134ZM33.8617 54.3984H47.7508C48.3896 54.3984 48.9079 54.9166 48.9079 55.5555C48.9079 56.1951 48.3896 56.7134 47.7508 56.7134H33.8617C33.2229 56.7134 32.7046 56.1951 32.7046 55.5555C32.7046 54.9166 33.2229 54.3984 33.8617 54.3984Z" fill="#6D071A"/>
</g>
<path d="M59.4556 40.5095L58.5011 41.464C59.397 44.2629 62.0192 46.2966 65.112 46.2966C66.3846 46.2966 67.5777 45.9508 68.6042 45.3505L64.5695 40.5095H59.4556Z" fill="#6D071A"/>
<path d="M26.0746 44.4269L25.7598 44.1121V46.2964H28.0748V44.2117L27.5356 44.5717C27.0759 44.8773 26.4647 44.817 26.0746 44.4269Z" fill="#6D071A"/>
<path d="M9.5564 40.5095H11.8705V46.2966H9.5564V40.5095Z" fill="#6D071A"/>
<path d="M72.0561 39.3523C72.0561 35.9171 69.5494 33.0587 66.269 32.5061V38.9328L70.3816 43.8676C71.424 42.6519 72.0561 41.0753 72.0561 39.3523Z" fill="#6D071A"/>
<path d="M19.7423 35.8796H17.6576V46.2967H19.9726V38.3252L19.5272 37.8798C19.137 37.4897 19.0767 36.8785 19.3832 36.4197L19.7423 35.8796Z" fill="#6D071A"/>
<mask id="mask1_12_282" style="mask-type:luminance" maskUnits="userSpaceOnUse" x="6" y="11" width="70" height="41">
<path d="M6.0835 11.5742H75.5282V51.0119H6.0835V11.5742Z" fill="white"/>
</mask>
<g mask="url(#mask1_12_282)">
<path d="M73.7926 11.5742H61.0982L60.2442 12.856C60.8914 14.0768 61.4222 15.3586 61.8291 16.6814L65.3389 17.3839C65.8797 17.4919 66.2691 17.9666 66.2691 18.5184V27.7783C66.2691 28.3292 65.8797 28.8048 65.3389 28.9128L61.8291 29.6152C61.6985 30.0389 61.5545 30.4583 61.3988 30.8728C62.5358 30.3729 63.7916 30.0925 65.112 30.0925C70.2175 30.0925 74.3711 34.2461 74.3711 39.3524C74.3711 44.458 70.2175 48.6115 65.112 48.6115C61.3971 48.6115 58.1913 46.4104 56.7194 43.2456L55.5372 44.427C55.1479 44.8171 54.5359 44.8774 54.077 44.5718L51.099 42.5859C49.8774 43.2339 48.5956 43.7647 47.2727 44.1708L46.5711 47.6814C46.4623 48.2222 45.9876 48.6115 45.4358 48.6115H36.1767C35.6249 48.6115 35.1494 48.2222 35.0414 47.6814L34.3398 44.1708C33.0169 43.7647 31.7351 43.2339 30.5135 42.5859L30.3896 42.6688V47.4536C30.3896 48.0933 29.8714 48.6115 29.2317 48.6115H24.6026C23.9629 48.6115 23.4447 48.0933 23.4447 47.4536V41.7972L22.2876 40.6401V47.4536C22.2876 48.0933 21.7693 48.6115 21.1305 48.6115H16.5005C15.8617 48.6115 15.3435 48.0933 15.3435 47.4536V34.7224C15.3435 34.0836 15.8617 33.5654 16.5005 33.5654H21.1305C21.1807 33.5654 21.2301 33.5696 21.2787 33.5754L21.3683 33.4406C20.7211 32.2199 20.1903 30.9381 19.7834 29.6152L16.2736 28.9128C15.7328 28.8048 15.3435 28.3292 15.3435 27.7783V18.5184C15.3435 17.9674 15.7328 17.4919 16.2736 17.3839L19.7834 16.6814C20.1903 15.3586 20.7211 14.0768 21.3683 12.856L20.5143 11.5742H7.81995C6.86297 11.5742 6.0835 12.3529 6.0835 13.3107V50.9265H75.5282V13.3107C75.5282 12.3529 74.7495 11.5742 73.7926 11.5742ZM8.39849 13.8892H15.3435C15.9823 13.8892 16.5005 14.4075 16.5005 15.0463C16.5005 15.6859 15.9823 16.2042 15.3435 16.2042H8.39849C7.75967 16.2042 7.24141 15.6859 7.24141 15.0463C7.24141 14.4075 7.75967 13.8892 8.39849 13.8892ZM8.39849 17.3613H11.8706C12.5102 17.3613 13.0285 17.8795 13.0285 18.5184C13.0285 19.158 12.5102 19.6763 11.8706 19.6763H8.39849C7.75967 19.6763 7.24141 19.158 7.24141 18.5184C7.24141 17.8795 7.75967 17.3613 8.39849 17.3613ZM8.39849 20.8333H11.8706C12.5102 20.8333 13.0285 21.3516 13.0285 21.9913C13.0285 22.6301 12.5102 23.1483 11.8706 23.1483H8.39849C7.75967 23.1483 7.24141 22.6301 7.24141 21.9913C7.24141 21.3516 7.75967 20.8333 8.39849 20.8333ZM8.39849 24.3054H11.8706C12.5102 24.3054 13.0285 24.8237 13.0285 25.4633C13.0285 26.1021 12.5102 26.6204 11.8706 26.6204H8.39849C7.75967 26.6204 7.24141 26.1021 7.24141 25.4633C7.24141 24.8237 7.75967 24.3054 8.39849 24.3054ZM8.39849 27.7783H11.8706C12.5102 27.7783 13.0285 28.2966 13.0285 28.9354C13.0285 29.5742 12.5102 30.0925 11.8706 30.0925H8.39849C7.75967 30.0925 7.24141 29.5742 7.24141 28.9354C7.24141 28.2966 7.75967 27.7783 8.39849 27.7783ZM14.1855 47.4536C14.1855 48.0933 13.6673 48.6115 13.0285 48.6115H8.39849C7.75967 48.6115 7.24141 48.0933 7.24141 47.4536V39.3524C7.24141 38.7128 7.75967 38.1945 8.39849 38.1945H13.0285C13.6673 38.1945 14.1855 38.7128 14.1855 39.3524V47.4536ZM7.24141 35.8795C7.24141 35.2407 7.75967 34.7224 8.39849 34.7224H11.8706C12.5102 34.7224 13.0285 35.2407 13.0285 35.8795C13.0285 36.5192 12.5102 37.0374 11.8706 37.0374H8.39849C7.75967 37.0374 7.24141 36.5192 7.24141 35.8795ZM14.1855 33.5654H8.39849C7.75967 33.5654 7.24141 33.0471 7.24141 32.4075C7.24141 31.7686 7.75967 31.2504 8.39849 31.2504H14.1855C14.8252 31.2504 15.3435 31.7686 15.3435 32.4075C15.3435 33.0471 14.8252 33.5654 14.1855 33.5654ZM73.214 30.0925H69.7411C69.1023 30.0925 68.584 29.5742 68.584 28.9354C68.584 28.2966 69.1023 27.7783 69.7411 27.7783H73.214C73.8528 27.7783 74.3711 28.2966 74.3711 28.9354C74.3711 29.5742 73.8528 30.0925 73.214 30.0925ZM73.214 26.6204H69.7411C69.1023 26.6204 68.584 26.1021 68.584 25.4633C68.584 24.8237 69.1023 24.3054 69.7411 24.3054H73.214C73.8528 24.3054 74.3711 24.8237 74.3711 25.4633C74.3711 26.1021 73.8528 26.6204 73.214 26.6204ZM73.214 23.1483H69.7411C69.1023 23.1483 68.584 22.6301 68.584 21.9913C68.584 21.3516 69.1023 20.8333 69.7411 20.8333H73.214C73.8528 20.8333 74.3711 21.3516 74.3711 21.9913C74.3711 22.6301 73.8528 23.1483 73.214 23.1483ZM73.214 19.6763H69.7411C69.1023 19.6763 68.584 19.158 68.584 18.5184C68.584 17.8795 69.1023 17.3613 69.7411 17.3613H73.214C73.8528 17.3613 74.3711 17.8795 74.3711 18.5184C74.3711 19.158 73.8528 19.6763 73.214 19.6763ZM73.214 16.2042H66.2691C65.6302 16.2042 65.112 15.6859 65.112 15.0463C65.112 14.4075 65.6302 13.8892 66.2691 13.8892H73.214C73.8528 13.8892 74.3711 14.4075 74.3711 15.0463C74.3711 15.6859 73.8528 16.2042 73.214 16.2042Z" fill="#6D071A"/>
</g>
<path d="M40.8059 38.1942C49.1031 38.1942 55.853 31.4443 55.853 23.148C55.853 14.8517 49.1031 8.10181 40.8059 8.10181C32.5097 8.10181 25.7598 14.8517 25.7598 23.148C25.7598 31.4443 32.5097 38.1942 40.8059 38.1942ZM46.593 20.01C46.593 18.549 47.7819 17.3609 49.2429 17.3609H50.8881C52.3491 17.3609 53.538 18.5498 53.538 20.01V26.286C53.538 27.7462 52.3491 28.935 50.8881 28.935H49.2429C47.7819 28.935 46.593 27.7462 46.593 26.286V20.01ZM37.3339 18.518C37.3339 17.8792 37.8521 17.3609 38.4918 17.3609H43.1209C43.7606 17.3609 44.2788 17.8792 44.2788 18.518C44.2788 19.1577 43.7606 19.6759 43.1209 19.6759H39.6489V21.9909H43.1209C43.7606 21.9909 44.2788 22.5092 44.2788 23.148C44.2788 23.7868 43.7606 24.3051 43.1209 24.3051H39.6489V26.6201H43.1209C43.7606 26.6201 44.2788 27.1383 44.2788 27.778C44.2788 28.4168 43.7606 28.935 43.1209 28.935H38.4918C37.8521 28.935 37.3339 28.4168 37.3339 27.778V18.518ZM28.0748 26.6201C28.0748 25.9812 28.593 25.463 29.2318 25.463C29.8715 25.463 30.3897 25.9812 30.3897 26.6201C30.3897 26.6209 30.3897 26.6217 30.3897 26.6217L32.7047 26.6201V24.3051H30.3897C29.1129 24.3051 28.0748 23.2669 28.0748 21.9909V19.6759C28.0748 18.3991 29.1129 17.3609 30.3897 17.3609H32.7047C33.9807 17.3609 35.0189 18.3991 35.0189 19.6759C35.0189 20.3147 34.5006 20.833 33.8618 20.833C33.223 20.833 32.7047 20.3147 32.7047 19.6759H30.3897V21.9909H32.7047C33.9807 21.9909 35.0189 23.0291 35.0189 24.3051V26.6201C35.0189 27.8969 33.9807 28.935 32.7047 28.935H30.3897C29.1129 28.935 28.0748 27.8969 28.0748 26.6201Z" fill="#6D071A"/>
<path d="M49.2429 26.6202H50.888C51.0731 26.6202 51.2229 26.4703 51.2229 26.2861V20.0101C51.2229 19.8259 51.0731 19.676 50.888 19.676H49.2429C49.0578 19.676 48.908 19.8259 48.908 20.0101V26.2861C48.908 26.4703 49.0587 26.6202 49.2429 26.6202Z" fill="#6D071A"/>
<path d="M17.6576 19.4677V26.8288L20.927 27.4827C21.3574 27.5689 21.7015 27.8912 21.817 28.3149C22.2541 29.9257 22.8963 31.4763 23.726 32.9223C23.9436 33.3032 23.9277 33.7746 23.6841 34.1396L21.8355 36.9143L27.0406 42.1194L29.8144 40.2699C30.1803 40.0263 30.6517 40.0104 31.0326 40.2289C32.4786 41.0578 34.0283 41.7 35.64 42.1378C36.0636 42.2525 36.3852 42.5975 36.4714 43.0278L37.1253 46.2965H44.4872L45.1411 43.0278C45.2273 42.5975 45.5488 42.2525 45.9725 42.1378C47.5842 41.7 49.1348 41.0578 50.5798 40.2289C50.9608 40.0104 51.433 40.0263 51.798 40.2699L54.5718 42.1194L59.777 36.9134L57.9284 34.1396C57.6847 33.7746 57.6688 33.3024 57.8873 32.9223C58.7162 31.4763 59.3584 29.9257 59.7954 28.3149C59.911 27.8912 60.2551 27.5689 60.6854 27.4827L63.954 26.8288V19.4677L60.6854 18.8138C60.2551 18.7276 59.911 18.4052 59.7954 17.9816C59.3584 16.3699 58.7162 14.8201 57.8865 13.3742C57.668 12.9941 57.6839 12.5219 57.9275 12.1568L59.777 9.38304L54.5718 4.17703L51.798 6.02651C51.4322 6.27015 50.9608 6.28606 50.5798 6.06753C49.1339 5.23866 47.5842 4.59649 45.9725 4.15861C45.5488 4.04391 45.2273 3.69896 45.1411 3.26862L44.4872 0H37.1253L36.4714 3.26862C36.3852 3.69896 36.0636 4.04391 35.64 4.15861C34.0283 4.59649 32.4786 5.23866 31.0326 6.06753C30.6517 6.28606 30.1795 6.27015 29.8144 6.02651L27.0406 4.17703L21.8355 9.3822L23.6841 12.1568C23.9277 12.5219 23.9436 12.9932 23.726 13.3742C22.8963 14.8201 22.2541 16.3707 21.817 17.9816C21.7023 18.4052 21.3574 18.7276 20.927 18.8138L17.6576 19.4677ZM40.8058 5.78706C50.3789 5.78706 58.167 13.5751 58.167 23.1482C58.167 32.7213 50.3789 40.5094 40.8058 40.5094C31.2336 40.5094 23.4446 32.7213 23.4446 23.1482C23.4446 13.5751 31.2336 5.78706 40.8058 5.78706Z" fill="#6D071A"/>
</g>
<defs>
<clipPath id="clip0_12_282">
<rect width="75.5532" height="77" fill="white"/>
</clipPath>
</defs>
</svg>
